<mxfile host="app.diagrams.net" modified="2021-04-03T11:59:14.776Z" agent="5.0 (Macintosh; Intel Mac OS X 10_15_7) AppleWebKit/537.36 (KHTML, like Gecko) Chrome/86.0.4240.193 Safari/537.36" etag="U_Dd4euBVYCmc7KVTEE3" version="14.5.6" type="github">
  <diagram id="Qz_UywTUOaZ3qIhFZAhM" name="Page-1">
    <mxGraphModel dx="1773" dy="536" grid="1" gridSize="10" guides="1" tooltips="1" connect="1" arrows="1" fold="1" page="1" pageScale="1" pageWidth="827" pageHeight="1169" math="0" shadow="0">
      <root>
        <mxCell id="0" />
        <mxCell id="1" parent="0" />
        <mxCell id="ys_CPXLPF3eM1sXFZGFd-1" value="&lt;pre&gt;HttpServlet#service&lt;/pre&gt;" style="rounded=1;whiteSpace=wrap;html=1;" vertex="1" parent="1">
          <mxGeometry x="110" y="220" width="240" height="60" as="geometry" />
        </mxCell>
        <mxCell id="ys_CPXLPF3eM1sXFZGFd-2" value="&lt;pre&gt;DispatcherServlet#doDispatch&lt;/pre&gt;" style="rounded=1;whiteSpace=wrap;html=1;" vertex="1" parent="1">
          <mxGeometry x="110" y="330" width="240" height="60" as="geometry" />
        </mxCell>
        <mxCell id="ys_CPXLPF3eM1sXFZGFd-3" value="&lt;pre&gt;AbstractHandlerMethodAdapter#handle&lt;/pre&gt;&lt;pre&gt;&lt;pre&gt;RequestMappingHandlerAdapter#handleInternal&lt;/pre&gt;&lt;pre&gt;RequestMappingHandlerAdapter#invokeHandlerMethod&lt;/pre&gt;&lt;pre&gt;&lt;b&gt;通过@RequestMapping标注的handler类型为&lt;/b&gt;&lt;/pre&gt;&lt;pre&gt;&lt;b&gt;RequestMappingHandlerAdapter&lt;/b&gt;&lt;/pre&gt;&lt;/pre&gt;" style="rounded=1;whiteSpace=wrap;html=1;" vertex="1" parent="1">
          <mxGeometry x="45" y="500" width="370" height="130" as="geometry" />
        </mxCell>
        <mxCell id="ys_CPXLPF3eM1sXFZGFd-4" value="1. 从HandlerMapping中找到对应的Handler" style="text;html=1;strokeColor=none;fillColor=none;align=center;verticalAlign=middle;whiteSpace=wrap;rounded=0;" vertex="1" parent="1">
          <mxGeometry x="340" y="430" width="280" height="30" as="geometry" />
        </mxCell>
        <mxCell id="ys_CPXLPF3eM1sXFZGFd-5" value="2. 通过Handler找到HandlerAdapter" style="text;html=1;strokeColor=none;fillColor=none;align=center;verticalAlign=middle;whiteSpace=wrap;rounded=0;" vertex="1" parent="1">
          <mxGeometry x="320" y="460" width="280" height="30" as="geometry" />
        </mxCell>
        <mxCell id="ys_CPXLPF3eM1sXFZGFd-6" value="&lt;pre&gt;ServletInvocableHandlerMethod#invokeAndHandle&lt;br&gt;&lt;/pre&gt;&lt;pre&gt;在这里调用handler方法&lt;/pre&gt;" style="rounded=1;whiteSpace=wrap;html=1;" vertex="1" parent="1">
          <mxGeometry x="24" y="690" width="390" height="60" as="geometry" />
        </mxCell>
        <mxCell id="ys_CPXLPF3eM1sXFZGFd-8" value="&lt;pre&gt;DispatcherServlet#processDispatchResult&lt;/pre&gt;" style="rounded=1;whiteSpace=wrap;html=1;" vertex="1" parent="1">
          <mxGeometry x="-30" y="1360" width="390" height="60" as="geometry" />
        </mxCell>
        <mxCell id="ys_CPXLPF3eM1sXFZGFd-9" value="上述步骤发生异常用HandlerExceptionResolver处理&lt;br&gt;并返回ModelAndView" style="rounded=1;whiteSpace=wrap;html=1;" vertex="1" parent="1">
          <mxGeometry x="465" y="1300" width="330" height="60" as="geometry" />
        </mxCell>
        <mxCell id="ys_CPXLPF3eM1sXFZGFd-10" value="&lt;span&gt;ModelAndView找到对应的&lt;/span&gt;ViewResolver将其渲染为View&lt;br&gt;并返回" style="rounded=1;whiteSpace=wrap;html=1;" vertex="1" parent="1">
          <mxGeometry x="465" y="1420" width="330" height="60" as="geometry" />
        </mxCell>
        <mxCell id="ys_CPXLPF3eM1sXFZGFd-12" value="&lt;pre&gt;利用HandlerMethodArgumentResolver&lt;/pre&gt;&lt;pre&gt;解析出方法的参数&lt;/pre&gt;" style="rounded=1;whiteSpace=wrap;html=1;" vertex="1" parent="1">
          <mxGeometry x="477" y="580" width="350" height="70" as="geometry" />
        </mxCell>
        <mxCell id="ys_CPXLPF3eM1sXFZGFd-13" value="利用HandlerMethodReturnValueHandler&lt;br&gt;对返回值进行处理" style="rounded=1;whiteSpace=wrap;html=1;" vertex="1" parent="1">
          <mxGeometry x="477" y="780" width="350" height="70" as="geometry" />
        </mxCell>
        <mxCell id="ys_CPXLPF3eM1sXFZGFd-14" value="将参数传入，反射执行handler方法" style="rounded=1;whiteSpace=wrap;html=1;" vertex="1" parent="1">
          <mxGeometry x="477" y="680" width="350" height="70" as="geometry" />
        </mxCell>
      </root>
    </mxGraphModel>
  </diagram>
</mxfile>
